<svg xmlns="http://www.w3.org/2000/svg" viewBox="0 0 379.71 318.69"><defs><style>.cls-1{fill:#fff;}.cls-2{fill:#21201d;}.cls-3{fill:#161313;}</style></defs><g id="圖層_2" data-name="圖層 2"><g id="圖層_3" data-name="圖層 3"><path class="cls-1" d="M45.07,313.69a11.8,11.8,0,0,1-10.56-16.47c.6-1.36,1.21-2.71,1.82-4.06a148.71,148.71,0,0,0,6-14.58c3.7-11.38.28-24.31-8.71-32.93A91.75,91.75,0,0,1,5,178.91v-74.8A99.22,99.22,0,0,1,104.11,5H275.6a99.22,99.22,0,0,1,99.11,99.11v68.24a99.22,99.22,0,0,1-99.11,99.11H102.87l-.54,0c-5.45,0-10.49,4-12.64,5.76l-.14.11c-4.3,3.44-9.2,8.13-14.39,13.1-6.88,6.57-14.67,14-23.43,20.92A10.63,10.63,0,0,1,45.07,313.69Z"/><path class="cls-2" d="M275.6,10c51.76,0,94.11,42.35,94.11,94.11v68.24c0,51.76-42.35,94.11-94.11,94.11H103.12l-.79,0c-7.34,0-13.5,5-15.91,7-10.16,8.13-22.49,22-37.78,34a5.74,5.74,0,0,1-3.57,1.28,6.82,6.82,0,0,1-6-9.45c2.85-6.44,5.91-12.76,8-19.11a37,37,0,0,0-10-38.09,87.32,87.32,0,0,1-27-63.13v-74.8C10,52.35,52.35,10,104.11,10H275.6m0-10H104.11A104.37,104.37,0,0,0,0,104.11v74.8a96.29,96.29,0,0,0,8.12,38.86,97.7,97.7,0,0,0,22,31.48c7.61,7.31,10.53,18.21,7.41,27.78a143.14,143.14,0,0,1-5.77,14.07c-.62,1.36-1.23,2.73-1.84,4.1a16.81,16.81,0,0,0,15.14,23.49,15.63,15.63,0,0,0,9.76-3.43c9-7,16.83-14.58,23.78-21.24,5.11-4.89,9.94-9.51,14.06-12.8l.14-.12c1.75-1.39,5.83-4.66,9.52-4.66H275.6A104.37,104.37,0,0,0,379.71,172.35V104.11A104.37,104.37,0,0,0,275.6,0Z"/><circle class="cls-3" cx="95.73" cy="142.76" r="30"/><circle class="cls-3" cx="193.05" cy="142.76" r="30"/><circle class="cls-3" cx="290.37" cy="142.76" r="30"/></g></g></svg>